<?xml version="1.0" encoding="utf-8"?>
<!-- Generator: Adobe Illustrator 18.0.0, SVG Export Plug-In . SVG Version: 6.00 Build 0)  -->
<!DOCTYPE svg PUBLIC "-//W3C//DTD SVG 1.1//EN" "http://www.w3.org/Graphics/SVG/1.1/DTD/svg11.dtd">
<svg version="1.1" id="Layer_1" xmlns="http://www.w3.org/2000/svg" xmlns:xlink="http://www.w3.org/1999/xlink" x="0px" y="0px"
	 viewBox="0 0 160 48" enable-background="new 0 0 160 48" xml:space="preserve">
<g>
	<path fill="#FFFFFF" d="M154.1,1c1.3,0,2.6,0.5,3.5,1.5c0.9,0.9,1.5,2.2,1.5,3.6v36c0,1.3-0.5,2.6-1.5,3.6
		c-0.9,0.9-2.2,1.5-3.5,1.5H5.9c-1.3,0-2.6-0.5-3.5-1.5c-0.9-0.9-1.5-2.2-1.5-3.6V6c0-1.3,0.5-2.6,1.5-3.6C3.3,1.5,4.6,1,5.9,1
		H154.1z M154.1,0H5.9C4.4,0,2.8,0.6,1.7,1.8C0.6,2.9,0,4.4,0,6v36c0,1.6,0.6,3.1,1.7,4.2C2.8,47.4,4.4,48,5.9,48h148.1
		c1.6,0,3.1-0.6,4.2-1.8c1.1-1.1,1.7-2.7,1.7-4.2V6c0-1.6-0.6-3.1-1.7-4.2C157.2,0.6,155.6,0,154.1,0z"/>
	<path fill="#FFFFFF" d="M38.1,23.2c0-3.7,3-5.5,3.1-5.6c-1.7-2.5-4.4-2.9-5.3-2.9c-2.2-0.2-4.4,1.3-5.5,1.3c-1.2,0-2.9-1.3-4.8-1.3
		c-2.4,0-4.7,1.5-5.9,3.7c-2.6,4.5-0.7,11.1,1.8,14.7c1.2,1.8,2.7,3.8,4.5,3.7c1.8-0.1,2.5-1.2,4.7-1.2c2.2,0,2.8,1.2,4.8,1.1
		c2,0,3.2-1.8,4.4-3.6c1.4-2,2-4,2-4.1C41.9,29.1,38.1,27.6,38.1,23.2z"/>
	<path fill="#FFFFFF" d="M34.4,12.3c1-1.2,1.7-2.9,1.5-4.7c-1.4,0.1-3.2,1-4.2,2.2c-0.9,1.1-1.7,2.8-1.5,4.5
		C31.8,14.5,33.4,13.6,34.4,12.3z"/>
	<path fill="#FFFFFF" d="M64.6,36.6h-2.6l-1.4-4.5h-4.9l-1.3,4.5h-2.5l4.8-15.2h3L64.6,36.6z M60.2,30.2l-1.3-4
		c-0.1-0.4-0.4-1.4-0.8-2.9h0C58,24,57.8,25,57.4,26.3l-1.2,4H60.2z"/>
	<path fill="#FFFFFF" d="M77.1,31c0,1.9-0.5,3.3-1.5,4.4c-0.9,1-2,1.4-3.3,1.4c-1.4,0-2.5-0.5-3.1-1.6h0V41h-2.4V29.2
		c0-1.2,0-2.4-0.1-3.6h2.1l0.1,1.7h0c0.8-1.3,2-2,3.7-2c1.3,0,2.3,0.5,3.2,1.5C76.6,27.9,77.1,29.3,77.1,31z M74.6,31
		c0-1.1-0.2-1.9-0.7-2.6c-0.5-0.7-1.2-1.1-2.1-1.1c-0.6,0-1.1,0.2-1.6,0.6c-0.5,0.4-0.8,0.9-0.9,1.6c-0.1,0.3-0.1,0.5-0.1,0.7v1.8
		c0,0.8,0.2,1.5,0.7,2c0.5,0.5,1.1,0.8,1.9,0.8c0.9,0,1.6-0.4,2.1-1.1C74.4,33.1,74.6,32.2,74.6,31z"/>
	<path fill="#FFFFFF" d="M89.5,31c0,1.9-0.5,3.3-1.5,4.4c-0.9,1-2,1.4-3.3,1.4c-1.4,0-2.5-0.5-3.1-1.6h0V41h-2.4V29.2
		c0-1.2,0-2.4-0.1-3.6h2.1l0.1,1.7h0c0.8-1.3,2-2,3.7-2c1.3,0,2.3,0.5,3.2,1.5C89.1,27.9,89.5,29.3,89.5,31z M87.1,31
		c0-1.1-0.2-1.9-0.7-2.6c-0.5-0.7-1.2-1.1-2.1-1.1c-0.6,0-1.1,0.2-1.6,0.6c-0.5,0.4-0.8,0.9-0.9,1.6c-0.1,0.3-0.1,0.5-0.1,0.7v1.8
		c0,0.8,0.2,1.5,0.7,2c0.5,0.5,1.1,0.8,1.9,0.8c0.9,0,1.6-0.4,2.1-1.1C86.8,33.1,87.1,32.2,87.1,31z"/>
	<path fill="#FFFFFF" d="M103.5,32.3c0,1.3-0.4,2.3-1.3,3.2c-1,0.9-2.3,1.3-4.1,1.3c-1.6,0-2.9-0.3-3.9-0.9l0.6-2
		c1.1,0.6,2.2,1,3.5,1c0.9,0,1.6-0.2,2.1-0.6c0.5-0.4,0.8-1,0.8-1.7c0-0.6-0.2-1.1-0.6-1.6c-0.4-0.4-1.1-0.8-2.1-1.2
		c-2.6-1-3.9-2.4-3.9-4.4c0-1.3,0.5-2.3,1.4-3.1c0.9-0.8,2.1-1.2,3.7-1.2c1.4,0,2.5,0.2,3.4,0.7l-0.6,2c-0.8-0.5-1.8-0.7-2.9-0.7
		c-0.8,0-1.5,0.2-2,0.6c-0.4,0.4-0.6,0.8-0.6,1.4c0,0.6,0.2,1.1,0.7,1.5c0.4,0.4,1.1,0.8,2.2,1.2c1.3,0.5,2.2,1.1,2.9,1.8
		C103.2,30.4,103.5,31.3,103.5,32.3z"/>
	<path fill="#FFFFFF" d="M111.4,27.4h-2.7v5.3c0,1.4,0.5,2,1.4,2c0.4,0,0.8,0,1.1-0.1l0.1,1.9c-0.5,0.2-1.1,0.3-1.9,0.3
		c-0.9,0-1.7-0.3-2.2-0.9c-0.5-0.6-0.8-1.6-0.8-3v-5.5h-1.6v-1.8h1.6v-2l2.4-0.7v2.7h2.7V27.4z"/>
	<path fill="#FFFFFF" d="M123.4,31c0,1.7-0.5,3.1-1.4,4.2c-1,1.1-2.3,1.7-4,1.7c-1.6,0-2.9-0.5-3.8-1.6s-1.4-2.4-1.4-4
		c0-1.7,0.5-3.1,1.5-4.2c1-1.1,2.3-1.6,3.9-1.6c1.6,0,2.9,0.5,3.8,1.6C122.9,28,123.4,29.4,123.4,31z M120.9,31.1
		c0-1-0.2-1.9-0.6-2.6c-0.5-0.9-1.2-1.3-2.2-1.3c-1,0-1.7,0.4-2.2,1.3c-0.4,0.7-0.6,1.6-0.6,2.6c0,1,0.2,1.9,0.6,2.6
		c0.5,0.9,1.2,1.3,2.2,1.3c0.9,0,1.6-0.4,2.2-1.3C120.7,33,120.9,32.1,120.9,31.1z"/>
	<path fill="#FFFFFF" d="M131.2,27.7c-0.2,0-0.5-0.1-0.8-0.1c-0.8,0-1.5,0.3-2,1c-0.4,0.6-0.6,1.3-0.6,2.2v5.8h-2.4l0-7.5
		c0-1.3,0-2.4-0.1-3.5h2.1l0.1,2.1h0.1c0.3-0.7,0.7-1.3,1.2-1.7c0.5-0.4,1.1-0.6,1.7-0.6c0.2,0,0.4,0,0.6,0V27.7z"/>
	<path fill="#FFFFFF" d="M142,30.6c0,0.4,0,0.8-0.1,1.1h-7.2c0,1.1,0.4,1.9,1,2.5c0.6,0.5,1.4,0.8,2.4,0.8c1.1,0,2-0.2,2.9-0.5
		l0.4,1.7c-1,0.5-2.2,0.7-3.6,0.7c-1.7,0-3-0.5-4-1.5c-1-1-1.4-2.3-1.4-4c0-1.7,0.4-3,1.3-4.1c0.9-1.2,2.2-1.8,3.8-1.8
		c1.6,0,2.7,0.6,3.5,1.8C141.7,28,142,29.2,142,30.6z M139.7,29.9c0-0.7-0.1-1.3-0.5-1.9c-0.4-0.7-1.1-1-1.9-1c-0.8,0-1.4,0.3-1.9,1
		c-0.4,0.5-0.6,1.2-0.7,1.9L139.7,29.9L139.7,29.9z"/>
	<path fill="#FFFFFF" d="M59.4,12c0,1.3-0.4,2.4-1.2,3c-0.7,0.6-1.8,0.9-3.1,0.9c-0.7,0-1.2,0-1.7-0.1V8.5c0.6-0.1,1.3-0.2,2-0.2
		c1.3,0,2.3,0.3,2.9,0.9C59.1,9.9,59.4,10.8,59.4,12z M58.2,12c0-0.9-0.2-1.5-0.7-2c-0.5-0.5-1.1-0.7-2-0.7c-0.4,0-0.7,0-1,0.1V15
		c0.1,0,0.4,0,0.8,0c0.9,0,1.6-0.3,2.1-0.8C57.9,13.8,58.2,13,58.2,12z"/>
	<path fill="#FFFFFF" d="M66,13.2c0,0.8-0.2,1.5-0.7,2c-0.5,0.5-1.1,0.8-2,0.8c-0.8,0-1.4-0.3-1.9-0.8c-0.5-0.5-0.7-1.2-0.7-2
		c0-0.8,0.2-1.5,0.7-2.1c0.5-0.5,1.1-0.8,1.9-0.8c0.8,0,1.4,0.3,1.9,0.8C65.8,11.7,66,12.4,66,13.2z M64.8,13.2
		c0-0.5-0.1-0.9-0.3-1.3c-0.2-0.4-0.6-0.6-1.1-0.6c-0.5,0-0.8,0.2-1.1,0.6c-0.2,0.4-0.3,0.8-0.3,1.3c0,0.5,0.1,0.9,0.3,1.3
		c0.3,0.4,0.6,0.6,1.1,0.6c0.5,0,0.8-0.2,1.1-0.7C64.7,14.1,64.8,13.7,64.8,13.2z"/>
	<path fill="#FFFFFF" d="M74.9,10.5l-1.7,5.4h-1.1l-0.7-2.3c-0.2-0.6-0.3-1.2-0.4-1.7h0c-0.1,0.6-0.2,1.2-0.4,1.7l-0.7,2.3h-1.1
		l-1.6-5.4h1.2l0.6,2.6c0.1,0.6,0.3,1.2,0.4,1.7h0c0.1-0.5,0.2-1,0.4-1.7l0.8-2.6h1l0.7,2.5c0.2,0.6,0.3,1.2,0.4,1.8h0
		c0.1-0.6,0.2-1.1,0.4-1.8l0.6-2.5L74.9,10.5L74.9,10.5z"/>
	<path fill="#FFFFFF" d="M81.1,15.9h-1.2v-3.1c0-1-0.4-1.4-1.1-1.4c-0.4,0-0.6,0.1-0.9,0.4c-0.2,0.3-0.3,0.6-0.3,0.9v3.2h-1.2v-3.8
		c0-0.5,0-1,0-1.5h1l0.1,0.8h0c0.1-0.3,0.3-0.5,0.6-0.7c0.3-0.2,0.7-0.3,1.1-0.3c0.5,0,0.9,0.2,1.2,0.5c0.4,0.4,0.6,1,0.6,1.8V15.9z
		"/>
	<path fill="#FFFFFF" d="M84.3,15.9h-1.2V8.1h1.2V15.9z"/>
	<path fill="#FFFFFF" d="M91.3,13.2c0,0.8-0.2,1.5-0.7,2c-0.5,0.5-1.1,0.8-2,0.8c-0.8,0-1.4-0.3-1.9-0.8c-0.5-0.5-0.7-1.2-0.7-2
		c0-0.8,0.2-1.5,0.7-2.1c0.5-0.5,1.1-0.8,1.9-0.8c0.8,0,1.4,0.3,1.9,0.8C91.1,11.7,91.3,12.4,91.3,13.2z M90.1,13.2
		c0-0.5-0.1-0.9-0.3-1.3c-0.2-0.4-0.6-0.6-1.1-0.6c-0.5,0-0.8,0.2-1.1,0.6c-0.2,0.4-0.3,0.8-0.3,1.3c0,0.5,0.1,0.9,0.3,1.3
		c0.3,0.4,0.6,0.6,1.1,0.6c0.5,0,0.8-0.2,1.1-0.7C89.9,14.1,90.1,13.7,90.1,13.2z"/>
	<path fill="#FFFFFF" d="M97,15.9h-1.1l-0.1-0.6h0c-0.4,0.5-0.9,0.7-1.6,0.7c-0.5,0-0.9-0.2-1.2-0.5c-0.3-0.3-0.4-0.7-0.4-1.1
		c0-0.7,0.3-1.2,0.8-1.5c0.5-0.3,1.3-0.5,2.3-0.5v-0.1c0-0.7-0.4-1.1-1.1-1.1c-0.5,0-1,0.1-1.4,0.4L93,10.9c0.5-0.3,1.1-0.5,1.8-0.5
		c1.4,0,2.1,0.7,2.1,2.2v2C96.9,15.2,97,15.6,97,15.9z M95.8,14.1v-0.8c-1.3,0-2,0.3-2,1.1c0,0.3,0.1,0.5,0.2,0.6
		c0.2,0.1,0.3,0.2,0.6,0.2c0.3,0,0.5-0.1,0.7-0.2c0.2-0.2,0.4-0.4,0.4-0.6C95.8,14.2,95.8,14.1,95.8,14.1z"/>
	<path fill="#FFFFFF" d="M103.7,15.9h-1.1l-0.1-0.9h0c-0.3,0.7-0.9,1-1.7,1c-0.6,0-1.2-0.3-1.6-0.8c-0.4-0.5-0.6-1.2-0.6-2
		c0-0.9,0.2-1.6,0.7-2.1c0.4-0.5,1-0.8,1.6-0.8c0.7,0,1.2,0.2,1.5,0.7h0V8.1h1.2v6.4C103.7,15,103.7,15.5,103.7,15.9z M102.5,13.6
		v-0.9c0-0.2,0-0.3,0-0.4c-0.1-0.3-0.2-0.5-0.4-0.7c-0.2-0.2-0.5-0.3-0.8-0.3c-0.4,0-0.8,0.2-1,0.5c-0.3,0.4-0.4,0.8-0.4,1.4
		c0,0.5,0.1,1,0.4,1.3c0.3,0.4,0.6,0.5,1,0.5c0.4,0,0.7-0.1,0.9-0.4C102.4,14.4,102.5,14,102.5,13.6z"/>
	<path fill="#FFFFFF" d="M113.9,13.2c0,0.8-0.2,1.5-0.7,2c-0.5,0.5-1.1,0.8-1.9,0.8c-0.8,0-1.4-0.3-1.9-0.8c-0.5-0.5-0.7-1.2-0.7-2
		c0-0.8,0.2-1.5,0.7-2.1c0.5-0.5,1.1-0.8,1.9-0.8c0.8,0,1.4,0.3,1.9,0.8C113.6,11.7,113.9,12.4,113.9,13.2z M112.6,13.2
		c0-0.5-0.1-0.9-0.3-1.3c-0.3-0.4-0.6-0.6-1.1-0.6c-0.5,0-0.8,0.2-1.1,0.6c-0.2,0.4-0.3,0.8-0.3,1.3c0,0.5,0.1,0.9,0.3,1.3
		c0.3,0.4,0.6,0.6,1.1,0.6c0.5,0,0.8-0.2,1.1-0.7C112.5,14.1,112.6,13.7,112.6,13.2z"/>
	<path fill="#FFFFFF" d="M120.2,15.9H119v-3.1c0-1-0.4-1.4-1.1-1.4c-0.4,0-0.6,0.1-0.9,0.4c-0.2,0.3-0.3,0.6-0.3,0.9v3.2h-1.2v-3.8
		c0-0.5,0-1,0-1.5h1l0.1,0.8h0c0.1-0.3,0.3-0.5,0.6-0.7c0.3-0.2,0.7-0.3,1.1-0.3c0.5,0,0.9,0.2,1.2,0.5c0.4,0.4,0.6,1,0.6,1.8V15.9z
		"/>
	<path fill="#FFFFFF" d="M128.2,11.4h-1.3V14c0,0.7,0.2,1,0.7,1c0.2,0,0.4,0,0.5-0.1l0,0.9c-0.2,0.1-0.5,0.1-0.9,0.1
		c-0.5,0-0.8-0.1-1.1-0.4c-0.3-0.3-0.4-0.8-0.4-1.5v-2.7h-0.8v-0.9h0.8v-1l1.2-0.4v1.3h1.3L128.2,11.4L128.2,11.4z"/>
	<path fill="#FFFFFF" d="M134.4,15.9h-1.2v-3.1c0-1-0.4-1.4-1.1-1.4c-0.5,0-0.9,0.3-1.1,0.8c0,0.1-0.1,0.3-0.1,0.4v3.2h-1.2V8.1h1.2
		v3.2h0c0.4-0.6,0.9-0.9,1.6-0.9c0.5,0,0.9,0.2,1.2,0.5c0.4,0.4,0.6,1,0.6,1.8V15.9z"/>
	<path fill="#FFFFFF" d="M140.9,13c0,0.2,0,0.4,0,0.5h-3.5c0,0.5,0.2,0.9,0.5,1.2c0.3,0.3,0.7,0.4,1.2,0.4c0.5,0,1-0.1,1.4-0.3
		l0.2,0.8c-0.5,0.2-1.1,0.3-1.8,0.3c-0.8,0-1.5-0.2-1.9-0.7c-0.5-0.5-0.7-1.2-0.7-2c0-0.8,0.2-1.5,0.7-2c0.5-0.6,1.1-0.9,1.9-0.9
		c0.8,0,1.3,0.3,1.7,0.9C140.8,11.7,140.9,12.3,140.9,13z M139.8,12.7c0-0.4-0.1-0.7-0.2-0.9c-0.2-0.3-0.5-0.5-0.9-0.5
		c-0.4,0-0.7,0.2-0.9,0.5c-0.2,0.3-0.3,0.6-0.4,0.9H139.8z"/>
</g>
</svg>
