<svg width="11" height="15" viewBox="0 0 11 15" fill="none" xmlns="http://www.w3.org/2000/svg">
<path d="M9.84991 0.140869H1.12367C0.930809 0.140869 0.745846 0.217183 0.609472 0.353022C0.473099 0.488861 0.396484 0.673098 0.396484 0.865204V13.9032C0.396475 14.0417 0.436311 14.1773 0.511274 14.2939C0.586236 14.4105 0.693183 14.5032 0.819445 14.5612C0.945707 14.6191 1.08599 14.6398 1.22368 14.6207C1.36138 14.6017 1.4907 14.5437 1.59634 14.4537L5.48679 11.2015L9.33361 14.4175C9.40155 14.4846 9.48214 14.5377 9.57073 14.5738C9.65933 14.6098 9.7542 14.6281 9.84991 14.6276C9.9453 14.63 10.0399 14.6102 10.1262 14.5696C10.259 14.5153 10.3727 14.423 10.4529 14.3044C10.5332 14.1858 10.5764 14.0462 10.5771 13.9032V0.865204C10.5771 0.673098 10.5005 0.488861 10.3641 0.353022C10.2277 0.217183 10.0428 0.140869 9.84991 0.140869ZM9.12272 12.3532L5.95219 9.70208C5.82152 9.59368 5.65684 9.53431 5.48679 9.53431C5.31673 9.53431 5.15206 9.59368 5.02139 9.70208L1.85086 12.3532V1.58954H9.12272V12.3532Z" fill="white"/>
</svg>
