<svg width="104" height="54" viewBox="0 0 104 54" fill="none" xmlns="http://www.w3.org/2000/svg">
<rect width="104" height="54" fill="#5117B0"/>
<path d="M17.7016 34V20.752H22.8676C24.5116 20.752 25.8136 21.124 26.7736 21.868C27.7336 22.6 28.2136 23.698 28.2136 25.162V25.45C28.2136 26.41 27.9916 27.214 27.5476 27.862C27.1156 28.498 26.5096 28.978 25.7296 29.302L29.0956 34H25.6756L22.7956 29.788H20.6536V34H17.7016ZM23.1016 23.254H20.6536V27.466H23.1016C23.7376 27.466 24.2476 27.274 24.6316 26.89C25.0276 26.506 25.2256 25.996 25.2256 25.36C25.2256 24.736 25.0276 24.232 24.6316 23.848C24.2476 23.452 23.7376 23.254 23.1016 23.254ZM35.0302 34.342C34.1902 34.342 33.4462 34.198 32.7982 33.91C32.1622 33.622 31.6282 33.238 31.1962 32.758C30.7642 32.266 30.4402 31.72 30.2242 31.12C30.0082 30.508 29.9002 29.884 29.9002 29.248V28.888C29.9002 28.24 30.0082 27.61 30.2242 26.998C30.4402 26.386 30.7642 25.84 31.1962 25.36C31.6282 24.88 32.1502 24.502 32.7622 24.226C33.3862 23.938 34.1062 23.794 34.9222 23.794C35.9782 23.794 36.8662 24.034 37.5862 24.514C38.3182 24.982 38.8762 25.6 39.2602 26.368C39.6442 27.136 39.8362 27.964 39.8362 28.852V29.824H32.6182C32.7142 30.496 32.9542 31.03 33.3382 31.426C33.7342 31.81 34.2982 32.002 35.0302 32.002C35.5462 32.002 35.9722 31.906 36.3082 31.714C36.6562 31.51 36.8902 31.252 37.0102 30.94H39.6562C39.4402 31.948 38.9182 32.77 38.0902 33.406C37.2742 34.03 36.2542 34.342 35.0302 34.342ZM34.9222 26.134C34.2982 26.134 33.7882 26.314 33.3922 26.674C33.0082 27.022 32.7622 27.526 32.6542 28.186H37.0822C36.9862 27.526 36.7522 27.022 36.3802 26.674C36.0202 26.314 35.5342 26.134 34.9222 26.134ZM44.5527 34.252C43.4847 34.252 42.6207 33.976 41.9607 33.424C41.3127 32.872 40.9887 32.092 40.9887 31.084C40.9887 30.364 41.1747 29.776 41.5467 29.32C41.9187 28.852 42.4407 28.51 43.1127 28.294C43.7847 28.066 44.5587 27.952 45.4347 27.952H47.2167V27.916C47.2167 26.908 46.7127 26.404 45.7047 26.404C45.4407 26.404 45.0927 26.416 44.6607 26.44C44.2287 26.452 43.7787 26.47 43.3107 26.494C42.8547 26.506 42.4467 26.524 42.0867 26.548V24.118C42.5067 24.082 43.0227 24.052 43.6347 24.028C44.2467 23.992 44.8107 23.974 45.3267 23.974C46.8387 23.974 47.9907 24.298 48.7827 24.946C49.5867 25.582 49.9887 26.584 49.9887 27.952V34H47.7027V32.146C47.4867 32.83 47.1147 33.352 46.5867 33.712C46.0587 34.072 45.3807 34.252 44.5527 34.252ZM45.4167 32.254C45.8847 32.254 46.2927 32.122 46.6407 31.858C46.9887 31.594 47.1807 31.09 47.2167 30.346V29.554H45.4167C44.9127 29.554 44.5227 29.68 44.2467 29.932C43.9827 30.184 43.8507 30.514 43.8507 30.922C43.8507 31.318 43.9827 31.642 44.2467 31.894C44.5227 32.134 44.9127 32.254 45.4167 32.254ZM56.5002 34.324C55.5762 34.324 54.7602 34.108 54.0522 33.676C53.3562 33.232 52.8102 32.632 52.4142 31.876C52.0182 31.12 51.8202 30.268 51.8202 29.32V28.906C51.8202 27.958 52.0062 27.1 52.3782 26.332C52.7502 25.564 53.2782 24.958 53.9622 24.514C54.6582 24.07 55.4682 23.848 56.3922 23.848C57.8322 23.848 58.8942 24.394 59.5782 25.486V20.86H62.4762V34H60.1902V31.93C59.8662 32.71 59.3862 33.304 58.7502 33.712C58.1142 34.12 57.3642 34.324 56.5002 34.324ZM57.2202 31.912C57.8802 31.912 58.4502 31.69 58.9302 31.246C59.4102 30.802 59.6502 30.172 59.6502 29.356V28.69C59.6502 28.174 59.5362 27.736 59.3082 27.376C59.0802 27.004 58.7802 26.722 58.4082 26.53C58.0362 26.338 57.6342 26.242 57.2022 26.242C56.4702 26.242 55.8702 26.506 55.4022 27.034C54.9342 27.562 54.7002 28.252 54.7002 29.104C54.7002 29.968 54.9342 30.652 55.4022 31.156C55.8822 31.66 56.4882 31.912 57.2202 31.912Z" fill="white"/>
<path d="M85.6471 23.8432V21.3529H79.6576V19L88 19V28.945L83.5376 25.081L73.6187 35L72 33.3813L83.5343 21.847L85.6471 23.8432Z" fill="white"/>
</svg>
