<svg width="1440" height="423" viewBox="0 0 1440 423" fill="none" xmlns="http://www.w3.org/2000/svg">
<path d="M212.567 277.211H212.911L213.034 276.89L319.494 0.5H418.399L243.969 421.722H169.793L0.739436 0.5H106.238L210.902 276.888L211.024 277.211H211.37H212.567Z" stroke="#EDEEEE"/>
<path d="M553.81 277.211H554.154L554.277 276.89L660.536 0.5H759.252L585.151 421.722H511.118L342.383 0.5H447.68L552.147 276.887L552.269 277.211H552.615H553.81Z" stroke="#EDEEEE"/>
<path d="M892.567 277.211H892.911L893.034 276.89L999.494 0.5H1098.4L923.969 421.722H849.793L680.739 0.5H786.238L890.902 276.888L891.024 277.211H891.37H892.567Z" stroke="#EDEEEE"/>
<path d="M1233.81 277.211H1234.15L1234.28 276.89L1340.54 0.5H1439.25L1265.15 421.722H1191.12L1022.38 0.5H1127.68L1232.15 276.887L1232.27 277.211H1232.62H1233.81Z" stroke="#EDEEEE"/>
</svg>
