<svg width="24" height="24" viewBox="0 0 24 24" fill="none" xmlns="http://www.w3.org/2000/svg">
<path fill-rule="evenodd" clip-rule="evenodd" d="M17.5556 9.50929C17.5556 5.06543 13.9531 1.46297 9.50924 1.46297C5.06537 1.46297 1.46291 5.06543 1.46291 9.50929C1.46291 13.9532 5.06537 17.5556 9.50924 17.5556C13.9531 17.5556 17.5556 13.9532 17.5556 9.50929ZM9.50924 0C14.7611 0 19.0185 4.25746 19.0185 9.50929C19.0185 14.7611 14.7611 19.0186 9.50924 19.0186C4.2574 19.0186 -5.72205e-05 14.7611 -5.72205e-05 9.50929C-5.72205e-05 4.25746 4.2574 0 9.50924 0ZM17.2705 18.2873L18.3092 17.2486L23.9928 22.9395L22.9614 23.9709L17.2705 18.2873Z" fill="white"/>
</svg>
