<svg width="20" height="20" viewBox="0 0 20 20" fill="none" xmlns="http://www.w3.org/2000/svg">
<path d="M10 1.87256C8.02123 1.87251 6.10698 2.57663 4.59985 3.8589C3.09271 5.14117 2.09105 6.9179 1.77411 8.87117C1.45717 10.8244 1.84563 12.8267 2.86999 14.5198C3.89435 16.2128 5.48775 17.4861 7.36504 18.1117C7.78171 18.1851 7.93754 17.9351 7.93754 17.7159C7.93754 17.5184 7.92754 16.8617 7.92754 16.1642C5.83337 16.5492 5.29171 15.6534 5.12504 15.1851C4.94016 14.729 4.64699 14.3249 4.27087 14.0076C3.97921 13.8517 3.56254 13.4659 4.26004 13.4559C4.52661 13.4847 4.78229 13.5774 5.0054 13.7261C5.22852 13.8748 5.41249 14.0751 5.54171 14.3101C5.65565 14.5148 5.80887 14.695 5.9926 14.8404C6.17632 14.9858 6.38693 15.0936 6.61236 15.1574C6.83779 15.2213 7.07361 15.2401 7.3063 15.2126C7.53899 15.1852 7.76398 15.1121 7.96838 14.9976C8.00447 14.5737 8.19343 14.1774 8.50004 13.8826C6.64587 13.6742 4.70837 12.9559 4.70837 9.76839C4.69657 8.94004 5.00219 8.13857 5.56254 7.52839C5.3078 6.80857 5.33761 6.01863 5.64588 5.32006C5.64588 5.32006 6.34337 5.10173 7.93754 6.17423C9.30111 5.79918 10.7406 5.79918 12.1042 6.17423C13.6975 5.09089 14.3959 5.32006 14.3959 5.32006C14.7042 6.01861 14.734 6.80859 14.4792 7.52839C15.0413 8.13752 15.3471 8.93969 15.3334 9.76839C15.3334 12.9659 13.385 13.6742 11.5309 13.8826C11.7298 14.0841 11.8829 14.3261 11.98 14.5921C12.077 14.8582 12.1157 15.1419 12.0934 15.4242C12.0934 16.5392 12.0834 17.4351 12.0834 17.7159C12.0834 17.9351 12.2392 18.1951 12.6559 18.1117C14.5297 17.4808 16.1184 16.2045 17.1382 14.5107C18.1581 12.8168 18.5428 10.8156 18.2237 8.86438C17.9046 6.91311 16.9024 5.13875 15.396 3.85804C13.8897 2.57733 11.9772 1.87363 10 1.87256Z" fill="white"/>
</svg>
