<svg width="20" height="20" viewBox="0 0 20 20" fill="none" xmlns="http://www.w3.org/2000/svg">
<path d="M18.3333 4.92239C17.7086 5.19521 17.047 5.37409 16.37 5.45323C17.0806 5.03592 17.615 4.37415 17.8733 3.59156C17.2 3.9835 16.4656 4.25956 15.7008 4.40823C15.3788 4.0709 14.9914 3.80272 14.5623 3.62004C14.1332 3.43737 13.6713 3.34403 13.205 3.34573C11.3166 3.34573 9.78579 4.85406 9.78579 6.71239C9.78579 6.97573 9.81579 7.23323 9.87413 7.47906C8.51961 7.41464 7.19339 7.06857 5.9801 6.46292C4.76681 5.85728 3.69309 5.00538 2.82746 3.96156C2.52398 4.47356 2.36447 5.05804 2.36579 5.65323C2.36637 6.20986 2.50565 6.75758 2.77103 7.24689C3.03642 7.73619 3.41955 8.15165 3.88579 8.45573C3.3437 8.43823 2.81331 8.2935 2.33746 8.03323V8.07489C2.33746 9.70656 3.51663 11.0674 5.07913 11.3774C4.78547 11.4553 4.48294 11.4948 4.17913 11.4949C3.95829 11.4949 3.74413 11.4741 3.53496 11.4324C3.75836 12.1057 4.18588 12.6927 4.75814 13.1118C5.3304 13.531 6.019 13.7616 6.72829 13.7716C5.51168 14.7087 4.01814 15.2149 2.48246 15.2107C2.20579 15.2107 1.93413 15.1941 1.66663 15.1641C3.23434 16.1563 5.05212 16.6818 6.90746 16.6791C13.1966 16.6791 16.635 11.5482 16.635 7.09906L16.6233 6.66323C17.294 6.19128 17.8734 5.60143 18.3333 4.92239Z" fill="white"/>
</svg>
