<svg width="20" height="20" viewBox="0 0 20 20" fill="none" xmlns="http://www.w3.org/2000/svg">
<path d="M14.8433 4.18101H5.12079C3.21246 4.18101 1.66663 5.71018 1.66663 7.59684V12.4035C1.66663 14.2902 3.21329 15.8202 5.12079 15.8202H14.8433C16.7516 15.8202 18.2975 14.2902 18.2975 12.4035V7.59684C18.2975 5.71018 16.7508 4.18018 14.8433 4.18018V4.18101ZM12.5075 10.2335L7.95996 12.3793C7.93222 12.3927 7.90156 12.3988 7.87082 12.3971C7.84008 12.3955 7.81027 12.386 7.78415 12.3697C7.75804 12.3534 7.73647 12.3308 7.72146 12.3039C7.70645 12.277 7.69848 12.2468 7.69829 12.216V7.79184C7.69885 7.7609 7.70722 7.73061 7.72264 7.70378C7.73806 7.67695 7.76002 7.65446 7.78648 7.63841C7.81293 7.62235 7.84301 7.61325 7.87393 7.61196C7.90485 7.61067 7.93559 7.61722 7.96329 7.63101L12.5116 9.91018C12.5419 9.92528 12.5673 9.94863 12.585 9.97753C12.6026 10.0064 12.6117 10.0397 12.6113 10.0736C12.6108 10.1074 12.6009 10.1405 12.5825 10.1689C12.5641 10.1973 12.5381 10.22 12.5075 10.2343V10.2335Z" fill="white"/>
</svg>
