<?xml version="1.0" encoding="utf-8"?>
<!-- Generator: Adobe Illustrator 18.0.0, SVG Export Plug-In . SVG Version: 6.00 Build 0)  -->
<!DOCTYPE svg PUBLIC "-//W3C//DTD SVG 1.1//EN" "http://www.w3.org/Graphics/SVG/1.1/DTD/svg11.dtd">
<svg version="1.1" id="Layer_1" xmlns="http://www.w3.org/2000/svg" xmlns:xlink="http://www.w3.org/1999/xlink" x="0px" y="0px"
	 viewBox="0 0 160 48" enable-background="new 0 0 160 48" xml:space="preserve">
<g>
	<path fill="#FFFFFF" d="M154.1,1c1.3,0,2.6,0.5,3.5,1.5c0.9,0.9,1.5,2.2,1.5,3.6v36c0,1.3-0.5,2.6-1.5,3.6
		c-0.9,0.9-2.2,1.5-3.5,1.5H5.9c-1.3,0-2.6-0.5-3.5-1.5c-0.9-0.9-1.5-2.2-1.5-3.6V6c0-1.3,0.5-2.6,1.5-3.6C3.3,1.5,4.6,1,5.9,1
		H154.1z M154.1,0H5.9C4.4,0,2.8,0.6,1.7,1.8C0.6,2.9,0,4.4,0,6v36c0,1.6,0.6,3.1,1.7,4.2C2.8,47.4,4.4,48,5.9,48h148.1
		c1.6,0,3.1-0.6,4.2-1.8c1.1-1.1,1.7-2.7,1.7-4.2V6c0-1.6-0.6-3.1-1.7-4.2C157.2,0.6,155.6,0,154.1,0z"/>
	<path fill="#FFFFFF" d="M80.8,26.1c-1,0-2,0.3-2.8,0.9c-0.8,0.6-1.5,1.4-1.8,2.3c-0.4,0.9-0.5,2-0.3,2.9c0.2,1,0.7,1.9,1.4,2.6
		c0.7,0.7,1.6,1.2,2.6,1.4c1,0.2,2,0.1,2.9-0.3c0.9-0.4,1.7-1,2.3-1.9c0.6-0.8,0.8-1.8,0.8-2.8c0-0.7-0.1-1.3-0.4-2
		c-0.3-0.6-0.6-1.2-1.1-1.7c-0.5-0.5-1-0.9-1.7-1.1C82.1,26.2,81.4,26.1,80.8,26.1z M80.8,34.3c-0.6,0-1.2-0.1-1.8-0.4
		s-1-0.8-1.2-1.3c-0.3-0.6-0.4-1.2-0.3-1.8c0.1-0.6,0.4-1.2,0.8-1.6c0.4-0.5,1-0.8,1.6-0.9c0.6-0.1,1.2-0.1,1.8,0.1
		c0.6,0.2,1.1,0.6,1.4,1.1c0.3,0.5,0.5,1.1,0.5,1.7c0,0.4,0,0.8-0.2,1.2c-0.1,0.4-0.3,0.7-0.6,1c-0.3,0.3-0.6,0.5-0.9,0.7
		C81.5,34.2,81.1,34.3,80.8,34.3z M69.7,26.1c-1,0-2,0.3-2.8,0.9c-0.8,0.6-1.5,1.4-1.8,2.3c-0.4,0.9-0.5,2-0.3,2.9
		c0.2,1,0.7,1.9,1.4,2.6c0.7,0.7,1.6,1.2,2.6,1.4c1,0.2,2,0.1,2.9-0.3c0.9-0.4,1.7-1,2.3-1.9c0.6-0.8,0.8-1.8,0.8-2.8
		c0-0.7-0.1-1.3-0.4-2c-0.3-0.6-0.6-1.2-1.1-1.7c-0.5-0.5-1-0.9-1.7-1.1C71,26.2,70.4,26.1,69.7,26.1L69.7,26.1z M69.7,34.3
		c-0.6,0-1.2-0.1-1.8-0.4c-0.5-0.3-1-0.8-1.2-1.3c-0.3-0.6-0.4-1.2-0.3-1.8c0.1-0.6,0.4-1.2,0.8-1.6c0.4-0.5,1-0.8,1.6-0.9
		c0.6-0.1,1.2-0.1,1.8,0.1c0.6,0.2,1.1,0.6,1.4,1.1c0.3,0.5,0.5,1.1,0.5,1.7c0,0.4,0,0.8-0.2,1.2c-0.1,0.4-0.3,0.7-0.6,1
		c-0.3,0.3-0.6,0.5-0.9,0.7C70.5,34.2,70.1,34.3,69.7,34.3L69.7,34.3z M56.6,27.7v2.2h5.1c-0.1,1-0.5,2-1.2,2.7
		c-0.5,0.5-1.1,0.9-1.8,1.2c-0.7,0.3-1.4,0.4-2.1,0.4c-1.5,0-3-0.6-4-1.7c-1.1-1.1-1.7-2.5-1.7-4.1c0-1.5,0.6-3,1.7-4.1
		c1.1-1.1,2.5-1.7,4-1.7c1.4,0,2.8,0.5,3.9,1.5l1.5-1.5c-0.7-0.7-1.5-1.3-2.5-1.7c-0.9-0.4-1.9-0.6-2.9-0.6c-1.1,0-2.1,0.1-3.1,0.5
		c-1,0.4-1.9,1-2.6,1.7c-0.8,0.7-1.4,1.6-1.8,2.6c-0.4,1-0.6,2-0.6,3.1c0,1.1,0.2,2.1,0.6,3.1c0.4,1,1,1.9,1.8,2.6
		c0.8,0.7,1.7,1.3,2.6,1.7c1,0.4,2,0.6,3.1,0.5c1,0,2-0.1,3-0.5c0.9-0.4,1.8-1,2.5-1.7c1.2-1.4,1.9-3.2,1.8-5.1c0-0.5,0-0.9-0.1-1.4
		L56.6,27.7z M110.3,29.4c-0.3-0.9-0.9-1.7-1.7-2.3c-0.8-0.6-1.7-0.9-2.7-0.9c-0.6,0-1.3,0.1-1.9,0.4c-0.6,0.3-1.1,0.6-1.6,1.1
		c-0.4,0.5-0.8,1-1,1.7c-0.2,0.6-0.3,1.3-0.3,1.9c0,0.7,0.1,1.3,0.4,2c0.2,0.6,0.6,1.2,1.1,1.7c0.5,0.5,1,0.9,1.6,1.1
		c0.6,0.3,1.3,0.4,1.9,0.4c0.8,0,1.6-0.2,2.4-0.6c0.7-0.4,1.4-1,1.8-1.7l-1.7-1.2c-0.3,0.4-0.6,0.8-1.1,1s-0.9,0.4-1.4,0.4
		c-0.5,0-1-0.1-1.5-0.4c-0.4-0.3-0.8-0.7-1-1.2l6.7-2.8L110.3,29.4z M103.4,31.1c0-0.4,0-0.7,0.1-1.1c0.1-0.4,0.3-0.7,0.6-1
		c0.2-0.3,0.5-0.5,0.9-0.7c0.3-0.2,0.7-0.3,1.1-0.3c0.4,0,0.8,0.1,1.1,0.3c0.3,0.2,0.6,0.5,0.8,0.8L103.4,31.1z M97.9,36h2.2V21
		h-2.2V36z M94.3,27.2L94.3,27.2c-0.4-0.4-0.8-0.7-1.3-0.9c-0.5-0.2-1-0.3-1.5-0.3c-1.3,0.1-2.5,0.6-3.4,1.6c-0.9,1-1.4,2.2-1.4,3.5
		c0,1.3,0.5,2.6,1.4,3.5c0.9,1,2.1,1.5,3.4,1.6c0.5,0,1-0.1,1.5-0.3c0.5-0.2,0.9-0.5,1.2-0.9h0.1v0.7c0,2-1,3-2.7,3
		c-0.6,0-1.1-0.2-1.5-0.5c-0.5-0.3-0.8-0.8-1-1.3l-1.9,0.8c0.4,0.9,1,1.7,1.8,2.2c0.8,0.5,1.7,0.8,2.7,0.8c2.6,0,4.7-1.5,4.7-5.3
		v-9.1h-2V27.2z M91.8,34.3c-0.8-0.1-1.5-0.4-2-1C89.3,32.7,89,32,89,31.2c0-0.8,0.3-1.5,0.8-2.1c0.5-0.6,1.2-0.9,2-1
		c0.4,0,0.8,0.1,1.1,0.3c0.3,0.2,0.6,0.4,0.9,0.7c0.3,0.3,0.4,0.6,0.6,1c0.1,0.4,0.2,0.7,0.1,1.1c0,0.4,0,0.8-0.1,1.1
		c-0.1,0.4-0.3,0.7-0.6,1c-0.3,0.3-0.6,0.5-0.9,0.7C92.5,34.2,92.1,34.3,91.8,34.3L91.8,34.3z M120.7,21h-5.3v15h2.2v-5.7h3.1
		c0.6,0,1.3,0,1.9-0.3c0.6-0.2,1.1-0.5,1.6-1c0.5-0.4,0.8-1,1.1-1.6c0.3-0.6,0.4-1.2,0.4-1.9c0-0.6-0.1-1.3-0.4-1.9
		c-0.3-0.6-0.6-1.1-1.1-1.6c-0.5-0.4-1-0.8-1.6-1C121.9,21,121.3,21,120.7,21L120.7,21z M120.7,28.2h-3.1v-5.1h3.1
		c0.7,0,1.3,0.3,1.8,0.8c0.5,0.5,0.7,1.1,0.7,1.8c0,0.7-0.3,1.3-0.7,1.8C122,28,121.4,28.2,120.7,28.2L120.7,28.2z M134.3,26
		c-0.8,0-1.6,0.1-2.3,0.5c-0.7,0.4-1.3,1-1.6,1.7l2,0.8c0.2-0.4,0.5-0.7,0.8-0.9c0.4-0.2,0.8-0.3,1.2-0.2c0.3,0,0.6,0,0.8,0.1
		c0.3,0.1,0.5,0.2,0.7,0.4c0.2,0.2,0.4,0.4,0.5,0.7c0.1,0.3,0.2,0.5,0.2,0.8v0.2c-0.7-0.4-1.5-0.6-2.3-0.6c-2.1,0-4.3,1.2-4.3,3.4
		c0,0.5,0.1,0.9,0.3,1.3c0.2,0.4,0.5,0.8,0.8,1.1c0.3,0.3,0.7,0.5,1.2,0.7c0.4,0.1,0.9,0.2,1.3,0.2c0.6,0,1.1-0.1,1.6-0.3
		c0.5-0.3,0.9-0.6,1.2-1.1h0.1V36h2.1v-5.8C138.9,27.6,136.9,26.1,134.3,26L134.3,26z M134.1,34.3c-0.7,0-1.7-0.4-1.7-1.3
		c0-1.2,1.3-1.6,2.4-1.6c0.7,0,1.4,0.2,2,0.5c-0.1,0.6-0.4,1.3-0.9,1.7C135.4,34,134.8,34.3,134.1,34.3L134.1,34.3z M146.7,26.4
		l-2.5,6.5H144l-2.6-6.5H139l3.9,9.1l-2.3,5.1h2.3l6.1-14.1H146.7z M126.7,36h2.2V21h-2.2V36z"/>
	<path fill="#FFFFFF" d="M56.1,12.4c0,0.4,0,0.9-0.2,1.3c-0.2,0.4-0.4,0.8-0.7,1.1c-0.3,0.4-0.7,0.6-1.2,0.8
		c-0.4,0.2-0.9,0.3-1.4,0.3c-0.7,0-1.5-0.2-2.1-0.6c-0.6-0.4-1.1-1-1.4-1.7c-0.3-0.7-0.4-1.4-0.2-2.2c0.1-0.7,0.5-1.4,1-1.9
		c0.3-0.4,0.7-0.6,1.2-0.8c0.5-0.2,0.9-0.3,1.4-0.3c0.5,0,1,0.1,1.5,0.3c0.4,0.2,0.8,0.5,1.1,0.8L54.6,10c-0.2-0.3-0.5-0.5-0.9-0.7
		S53,9.2,52.6,9.2c-0.4,0-0.7,0.1-1.1,0.2c-0.3,0.1-0.7,0.4-0.9,0.6c-0.3,0.3-0.5,0.6-0.6,0.9c-0.1,0.3-0.2,0.7-0.2,1.1
		c0,0.6,0.1,1.1,0.4,1.6c0.3,0.5,0.7,0.8,1.2,1.1c0.5,0.2,1.1,0.3,1.6,0.2c0.5-0.1,1-0.4,1.4-0.8c0.4-0.4,0.6-0.9,0.6-1.5h-2.6v-0.9
		h3.4C56.1,12,56.1,12.2,56.1,12.4z M61.6,9.4h-3.2v2.3h2.9v0.9h-2.9v2.3h3.2v0.9h-4.1V8.5h4.1V9.4z M65.4,15.7h-0.9V9.4h-2V8.5h4.9
		v0.9h-2V15.7z M71,15.7V8.5h0.9v7.2H71z M75.9,15.7H75V9.4h-2V8.5h4.9v0.9h-2V15.7z M87.2,14.7c-0.7,0.7-1.6,1.1-2.6,1.1
		c-1,0-1.9-0.4-2.6-1.1c-0.7-0.7-1-1.7-1-2.7c0-1,0.4-1.9,1-2.7c0.3-0.3,0.7-0.6,1.2-0.8c0.4-0.2,0.9-0.3,1.4-0.3
		c0.5,0,1,0.1,1.4,0.3c0.4,0.2,0.9,0.5,1.2,0.8c0.7,0.7,1.1,1.7,1.1,2.7C88.2,13.1,87.8,14,87.2,14.7z M82.6,14.1
		c0.5,0.5,1.2,0.8,1.9,0.8c0.7,0,1.4-0.3,1.9-0.8c0.5-0.6,0.8-1.3,0.8-2.1c0-0.8-0.3-1.5-0.8-2.1c-0.5-0.5-1.2-0.8-1.9-0.8
		c-0.7,0-1.4,0.3-1.9,0.8c-0.5,0.6-0.8,1.3-0.8,2.1C81.8,12.8,82.1,13.6,82.6,14.1z M89.5,15.7V8.5h1.1l3.5,5.6V8.5H95v7.2H94
		l-3.6-5.9v5.9H89.5z"/>
	<path fill="#FFFFFF" d="M84.6,8.4c-0.5,0-0.9,0.1-1.4,0.3c-0.4,0.2-0.8,0.4-1.2,0.8c-0.7,0.7-1,1.6-1,2.6s0.4,1.9,1,2.6
		c0.7,0.7,1.6,1.1,2.5,1.1c0.9,0,1.9-0.4,2.5-1.1c0.7-0.7,1-1.6,1-2.6s-0.4-1.9-1-2.6c-0.3-0.3-0.7-0.6-1.2-0.8
		C85.5,8.5,85,8.4,84.6,8.4z M83.1,8.5c0.5-0.2,1-0.3,1.5-0.3c0.5,0,1,0.1,1.5,0.3c0.5,0.2,0.9,0.5,1.2,0.8l0,0
		c0.7,0.7,1.1,1.7,1.1,2.8c0,1-0.4,2-1.1,2.8l0,0c-0.7,0.7-1.7,1.1-2.7,1.1c-1,0-2-0.4-2.7-1.1l0,0c-0.7-0.7-1.1-1.7-1.1-2.8
		c0-1,0.4-2,1.1-2.8l0,0C82.2,9,82.6,8.7,83.1,8.5z M52.6,8.4c-0.5,0-0.9,0.1-1.4,0.3c-0.4,0.2-0.8,0.4-1.2,0.8l0,0
		c-0.5,0.5-0.8,1.2-1,1.9C49,12,49,12.8,49.3,13.4c0.3,0.7,0.7,1.2,1.3,1.6c0.6,0.4,1.3,0.6,2,0.6h0c0.5,0,0.9-0.1,1.4-0.2
		s0.8-0.4,1.2-0.8c0.3-0.3,0.5-0.7,0.7-1.1c0.1-0.4,0.2-0.8,0.2-1.2l0.1,0H56c0-0.1,0-0.3,0-0.4h-3.2v0.6h2.6l0,0.1
		c0,0.6-0.2,1.1-0.6,1.5l0,0c-0.4,0.4-0.9,0.7-1.5,0.8s-1.2,0-1.7-0.2c-0.5-0.2-1-0.6-1.3-1.1c-0.3-0.5-0.5-1.1-0.5-1.6
		c0-0.4,0.1-0.8,0.2-1.1c0.1-0.4,0.3-0.7,0.6-1c0.3-0.3,0.6-0.5,0.9-0.7c0.4-0.2,0.7-0.2,1.1-0.2c0.4,0,0.8,0,1.1,0.2
		c0.3,0.1,0.6,0.3,0.8,0.6L55,9.4c-0.3-0.3-0.6-0.5-1-0.7l0,0C53.6,8.5,53.1,8.4,52.6,8.4L52.6,8.4z M56.2,12.4
		c0,0.5-0.1,0.9-0.2,1.3c-0.2,0.4-0.4,0.8-0.7,1.1c-0.3,0.4-0.8,0.7-1.2,0.8c-0.5,0.2-1,0.3-1.5,0.3c-0.8,0-1.5-0.2-2.1-0.7
		c-0.6-0.4-1.1-1-1.4-1.7c-0.3-0.7-0.4-1.5-0.2-2.2c0.1-0.8,0.5-1.4,1-2c0.4-0.4,0.8-0.6,1.2-0.8c0.5-0.2,1-0.3,1.5-0.3
		c0.5,0,1,0.1,1.5,0.3C54.6,8.7,55,9,55.3,9.3l0.1,0.1l-0.8,0.8l-0.1-0.1c-0.2-0.3-0.5-0.5-0.8-0.6c-0.3-0.1-0.7-0.2-1-0.2l0,0
		c-0.4,0-0.7,0.1-1,0.2c-0.3,0.1-0.6,0.3-0.9,0.6c-0.2,0.3-0.4,0.6-0.6,0.9C50,11.4,50,11.7,50,12.1l0,0c0,0.5,0.1,1.1,0.4,1.5
		c0.3,0.4,0.7,0.8,1.2,1c0.5,0.2,1,0.3,1.5,0.2c0.5-0.1,1-0.3,1.4-0.7c0.3-0.3,0.5-0.8,0.6-1.3h-2.6v-1.1h3.7l0,0.1
		C56.2,12,56.2,12.2,56.2,12.4z M57.3,8.4h4.4v1.1h-3.2v2h2.9v1.1h-2.9v2h3.2v1.1h-4.4V8.4z M57.5,8.6v7h3.9v-0.6h-3.2v-2.5h2.9
		v-0.6h-2.9V9.2h3.2V8.6H57.5z M62.4,8.4h5.2v1.1h-2v6.3h-1.1V9.5h-2V8.4z M62.7,8.6v0.6h2v6.3h0.7V9.2h2V8.6H62.7z M70.8,8.4H72
		v7.4h-1.1V8.4z M71.1,8.6v7h0.7v-7H71.1z M72.9,8.4H78v1.1h-2v6.3h-1.1V9.5h-2V8.4z M73.1,8.6v0.6h2v6.3h0.7V9.2h2V8.6H73.1z
		 M89.4,8.4h1.3l3.3,5.3V8.4h1.1v7.4H94l-3.4-5.6v5.6h-1.2V8.4z M89.6,8.6v7h0.7V9.4l3.8,6.2h0.8v-7h-0.7v5.9l-3.6-5.9H89.6z
		 M82.5,9.9c0.5-0.5,1.3-0.8,2-0.8c0.8,0,1.5,0.3,2,0.8l0,0c0.5,0.6,0.8,1.4,0.8,2.1c0,0.8-0.3,1.6-0.8,2.1l0,0
		c-0.5,0.5-1.3,0.8-2,0.8c-0.8,0-1.5-0.3-2-0.8l0.1-0.1l-0.1,0.1c-0.5-0.6-0.8-1.4-0.8-2.1C81.7,11.3,82,10.5,82.5,9.9L82.5,9.9z
		 M82.7,14.1c0.5,0.5,1.2,0.8,1.8,0.8c0.7,0,1.4-0.3,1.8-0.8c0.5-0.5,0.8-1.2,0.8-2c0-0.7-0.3-1.4-0.8-2c-0.5-0.5-1.2-0.8-1.8-0.8
		c-0.7,0-1.4,0.3-1.8,0.8c-0.5,0.5-0.8,1.2-0.8,2C82,12.8,82.2,13.5,82.7,14.1z"/>
	<path fill="#FFFFFF" d="M12.4,39.2L27,24L12.5,8.8c-0.4,0.2-0.6,0.8-0.6,1.5v27.5C11.8,38.5,12.1,39,12.4,39.2z"/>
	<path fill="#FFFFFF" d="M27.5,23.6l4.3-4.5L14.2,8.9c-0.3-0.2-0.6-0.3-1-0.3L27.5,23.6L27.5,23.6z"/>
	<path fill="#FFFFFF" d="M27.5,24.4l-14.3,15c0.4,0,0.7-0.1,1-0.3L31.8,29L27.5,24.4z"/>
	<path fill="#FFFFFF" d="M38.2,22.7l-5.9-3.4L27.9,24l4.5,4.7l5.8-3.4C39.4,24.6,39.4,23.4,38.2,22.7z"/>
</g>
</svg>
