<svg width="16" height="15" viewBox="0 0 16 15" fill="none" xmlns="http://www.w3.org/2000/svg">
<path d="M12.1701 14.7499C12.0501 14.7504 11.9318 14.7221 11.8251 14.6674L8.00007 12.6649L4.17507 14.6674C4.05086 14.7327 3.91082 14.7619 3.77087 14.7516C3.63092 14.7412 3.49667 14.6919 3.38339 14.6091C3.2701 14.5262 3.18232 14.4133 3.13003 14.2831C3.07773 14.1529 3.06302 14.0106 3.08757 13.8724L3.83757 9.64991L0.747566 6.64991C0.651159 6.5537 0.58277 6.43306 0.549737 6.30093C0.516704 6.1688 0.520275 6.03016 0.560066 5.89991C0.603536 5.76661 0.683498 5.64817 0.790879 5.55803C0.898259 5.46788 1.02876 5.40964 1.16757 5.38991L5.44257 4.76741L7.32507 0.919909C7.38648 0.793105 7.48237 0.686165 7.60175 0.611339C7.72113 0.536513 7.85917 0.496826 8.00007 0.496826C8.14096 0.496826 8.279 0.536513 8.39838 0.611339C8.51776 0.686165 8.61365 0.793105 8.67507 0.919909L10.5801 4.75991L14.8551 5.38241C14.9939 5.40214 15.1244 5.46038 15.2318 5.55053C15.3391 5.64067 15.4191 5.75911 15.4626 5.89241C15.5024 6.02266 15.5059 6.1613 15.4729 6.29343C15.4399 6.42556 15.3715 6.5462 15.2751 6.64241L12.1851 9.64241L12.9351 13.8649C12.9618 14.0055 12.9478 14.1508 12.8947 14.2837C12.8415 14.4166 12.7514 14.5316 12.6351 14.6149C12.4993 14.7101 12.3357 14.7576 12.1701 14.7499Z" fill="black"/>
</svg>
